# xmcd
#
# Track frame offsets:
#	150
#	11052
#	29650
#	50972
#	74150
#	82765
#	96502
#	115782
#	129017
#	147245
#	162467
#	173242
#
# Disc length: 2642 seconds
#
# Revision: 2
# Processed by: cddbd v1.5.2PL0 Copyright (c) Steve Scherf et al.
# Submitted via: EZCDDA 4.3.2
#
DISCID=ab0a500c
DTITLE=Claudio Baglioni  - Sabato Pomeriggio
DYEAR=1900
DGENRE=
TTITLE0=Aspettare
TTITLE1=Carillon
TTITLE2=Alzati Giuseppe
TTITLE3=Poster
TTITLE4=Tutto Quà
TTITLE5=Doremifasol
TTITLE6=Lampada Osram
TTITLE7=2 1 X
TTITLE8=Sisto V
TTITLE9=Il Lago do Misurina
TTITLE10=Ed Aspettando
TTITLE11=Sabato Pomeriggio
EXTD=
EXTT0=
EXTT1=
EXTT2=
EXTT3=
EXTT4=
EXTT5=
EXTT6=
EXTT7=
EXTT8=
EXTT9=
EXTT10=
EXTT11=
PLAYORDER=
